HIERARCHY
ROOT Pelvis
{
	OFFSET 0.000000 0.000000 0.000000
	CHANNELS 6 Xposition Yposition Zposition Xrotation Yrotation Zrotation
	JOINT LeftUpLeg_virtual
	{
		OFFSET 0.000000 0.000000 0.000000
		CHANNELS 3 Xrotation Yrotation Zrotation
		JOINT LeftUpLeg
		{
			OFFSET 18.735201 -5.666702 -4.541200
			CHANNELS 3 Xrotation Yrotation Zrotation
			JOINT LeftLeg
			{
				OFFSET -0.021200 -31.938179 0.493100
				CHANNELS 3 Xrotation Yrotation Zrotation
				JOINT LeftFoot
				{
					OFFSET 0.021200 -31.938179 -4.336299
					CHANNELS 3 Xrotation Yrotation Zrotation
					JOINT LeftToeBase
					{
						OFFSET 0.943001 -26.722000 15.023500
						CHANNELS 3 Xrotation Yrotation Zrotation
						End Site
						{
							OFFSET 0 0 0
						}
					}
				}
			}
		}
	}
	JOINT RightUpLeg_virtual
	{
		OFFSET 0.000000 0.000000 0.000000
		CHANNELS 3 Xrotation Yrotation Zrotation
		JOINT RightUpLeg
		{
			OFFSET -18.735201 -5.666702 -4.541200
			CHANNELS 3 Xrotation Yrotation Zrotation
			JOINT RightLeg
			{
				OFFSET 0.018946 -31.938133 0.493100
				CHANNELS 3 Xrotation Yrotation Zrotation
				JOINT RightFoot
				{
					OFFSET -0.018946 -31.938126 -4.336299
					CHANNELS 3 Xrotation Yrotation Zrotation
					JOINT RightToeBase
					{
						OFFSET -0.943001 -26.722004 15.023500
						CHANNELS 3 Xrotation Yrotation Zrotation
						End Site
						{
							OFFSET 0 0 0
						}
					}
				}
			}
		}
	}
	JOINT Hips_virtual
	{
		OFFSET 0.000000 0.000000 0.000000
		CHANNELS 3 Xrotation Yrotation Zrotation
		JOINT Hips
		{
			OFFSET -0.000000 -0.000000 -0.000000
			CHANNELS 3 Xrotation Yrotation Zrotation
			JOINT Spine
			{
				OFFSET 0.000000 10.199997 -0.299500
				CHANNELS 3 Xrotation Yrotation Zrotation
				JOINT Spine1
				{
					OFFSET 0.000000 11.900002 -1.516600
					CHANNELS 3 Xrotation Yrotation Zrotation
					JOINT Spine2
					{
						OFFSET 0.000000 13.600006 -2.842500
						CHANNELS 3 Xrotation Yrotation Zrotation
						JOINT Neck_virtual
						{
							OFFSET 0.000000 0.000000 0.000000
							CHANNELS 3 Xrotation Yrotation Zrotation
							JOINT Neck
							{
								OFFSET 0.000000 9.624100 -2.890100
								CHANNELS 3 Xrotation Yrotation Zrotation
								JOINT Head
								{
									OFFSET 0.000000 14.068802 -1.351900
									CHANNELS 3 Xrotation Yrotation Zrotation
									End Site
									{
										OFFSET 0 0 0
									}
								}
							}
						}
						JOINT LeftShoulder_virtual
						{
							OFFSET 0.000000 0.000000 0.000000
							CHANNELS 3 Xrotation Yrotation Zrotation
							JOINT LeftShoulder
							{
								OFFSET 15.263000 10.923401 -0.547700
								CHANNELS 3 Xrotation Yrotation Zrotation
								JOINT LeftArm
								{
									OFFSET 25.438599 -2.830597 -13.032500
									CHANNELS 3 Xrotation Yrotation Zrotation
									JOINT LeftForeArm
									{
										OFFSET 29.960503 0.000000 0.000000
										CHANNELS 3 Xrotation Yrotation Zrotation
										JOINT LeftHand
										{
											OFFSET 27.849251 0.000000 0.000000
											CHANNELS 3 Xrotation Yrotation Zrotation
											End Site
											{
												OFFSET 0 0 0
											}
										}
									}
								}
							}
						}
						JOINT RightShoulder_virtual
						{
							OFFSET 0.000000 0.000000 0.000000
							CHANNELS 3 Xrotation Yrotation Zrotation
							JOINT RightShoulder
							{
								OFFSET -15.263000 10.923401 -0.547700
								CHANNELS 3 Xrotation Yrotation Zrotation
								JOINT RightArm
								{
									OFFSET -25.438599 -2.830597 -13.032500
									CHANNELS 3 Xrotation Yrotation Zrotation
									JOINT RightForeArm
									{
										OFFSET -29.960503 0.000000 0.000000
										CHANNELS 3 Xrotation Yrotation Zrotation
										JOINT RightHand
										{
											OFFSET -27.849251 0.000000 0.000000
											CHANNELS 3 Xrotation Yrotation Zrotation
											End Site
											{
												OFFSET 0 0 0
											}
										}
									}
								}
							}
						}
					}
				}
			}
		}
	}
}
MOTION
Frames: 6
Frame Time: 0.03333333
-3.526504 78.410408 3.057369 0.000000 0.000000 0.000000 11.660453 -49.374420 11.268414 -69.006836 20.606780 47.788105 51.256383 -22.124368 3.397159 2.960991 1.488315 -15.125357 0.000000 0.000000 0.000000 11.660453 -49.374420 11.268414 -33.116025 3.850961 -30.939811 58.819089 4.953747 -6.674910 -30.773182 -6.442911 30.151880 0.000000 0.000000 0.000000 11.660453 -49.374420 11.268414 0.000001 -0.000004 0.000000 10.972540 2.720460 -2.032865 6.100700 5.566541 -4.284684 0.000000 0.000000 0.000000 -5.786917 6.328140 -3.046182 0.458698 1.873392 -0.022567 0.000000 0.000000 0.000000 -5.786917 6.328140 -3.046182 -1.875343 -16.181773 -2.870480 -10.644671 2.164773 -45.510595 -22.862392 -25.786285 -15.871760 0.000000 0.000000 0.000000 -5.786917 6.328140 -3.046182 -5.074616 24.343752 1.482674 6.642360 -34.733742 57.610433 -21.032027 44.833813 19.961711 0.000000 0.000000 0.000000 
-3.686884 78.543221 3.072243 0.000000 0.000000 0.000000 10.644290 -52.548313 10.553820 -65.818312 19.574100 48.412753 53.804047 -21.532561 3.701283 -0.464152 3.035865 -15.118929 0.000000 0.000000 0.000000 10.644290 -52.548313 10.553820 -33.754047 5.099538 -30.236903 58.734839 6.204279 -6.757334 -29.944550 -5.132468 29.676052 0.000000 0.000000 0.000000 10.644290 -52.548313 10.553820 0.000000 -0.000001 0.000000 11.043301 2.746623 -2.022758 6.244011 5.671779 -4.285783 0.000000 0.000000 0.000000 -5.640074 6.608157 -2.917740 0.524694 1.852678 -0.008452 0.000000 0.000000 0.000000 -5.640074 6.608157 -2.917740 -1.772854 -15.071260 -2.573300 -9.648136 1.878000 -45.209275 -22.751852 -26.556762 -16.251522 0.000000 0.000000 0.000000 -5.640074 6.608157 -2.917740 -5.414784 24.900587 2.343738 4.830025 -31.450446 55.681669 -21.606728 44.967408 21.111010 0.000000 0.000000 0.000000 
-3.964672 78.634079 3.139576 0.000000 0.000000 0.000000 9.400861 -55.520764 9.715930 -62.761427 16.716792 47.412540 59.822608 -18.967509 4.407813 -4.848554 5.957949 -15.444299 0.000000 0.000000 0.000000 9.400861 -55.520764 9.715930 -33.336367 7.358515 -28.816005 58.656790 6.318489 -7.156066 -29.475299 -4.916654 29.876528 0.000000 0.000000 0.000000 9.400861 -55.520764 9.715930 0.000000 0.000002 0.000000 11.227941 2.780695 -1.940162 6.622069 5.935552 -4.283189 0.000000 0.000000 0.000000 -5.249792 6.884307 -2.789886 0.581612 1.796825 0.021319 0.000000 0.000000 0.000000 -5.249792 6.884307 -2.789886 -1.628001 -13.599099 -2.198494 -7.656114 1.924347 -44.436220 -22.218802 -27.483348 -16.689612 0.000000 0.000000 0.000000 -5.249792 6.884307 -2.789886 -5.521603 25.685609 2.682265 3.144990 -28.050429 54.521206 -22.183266 44.067930 21.624432 0.000000 0.000000 0.000000 
-4.239486 78.566299 3.318027 0.000000 0.000000 0.000000 7.967942 -58.501021 8.670352 -60.041393 14.083199 47.950168 66.379289 -14.900999 5.060699 -11.156923 6.216054 -20.001570 0.000000 0.000000 0.000000 7.967942 -58.501021 8.670352 -32.464056 10.427575 -27.080752 58.691201 5.850919 -7.720417 -29.215021 -5.357694 30.643111 0.000000 0.000000 0.000000 7.967942 -58.501021 8.670352 0.000000 -0.000001 0.000000 11.488772 2.841230 -1.784070 7.156888 6.280144 -4.268100 0.000000 0.000000 0.000000 -4.692709 7.151613 -2.654778 0.633405 1.715637 0.061588 0.000000 0.000000 0.000000 -4.692709 7.151613 -2.654778 -1.392037 -11.113794 -1.624912 -4.936914 1.500546 -43.686713 -21.387721 -28.576938 -17.114743 0.000000 0.000000 0.000000 -4.692709 7.151613 -2.654778 -5.651482 26.970781 3.125272 2.522989 -24.162619 53.170895 -22.720211 43.276106 21.877620 0.000000 0.000000 0.000000 
-4.590923 78.423225 3.458061 0.000000 0.000000 0.000000 6.335891 -61.670748 7.344836 -57.738724 12.093033 48.262356 73.116178 -12.987245 5.403651 -17.891156 7.256557 -22.909267 0.000000 0.000000 0.000000 6.335891 -61.670748 7.344836 -31.630107 14.041439 -25.454097 58.402468 5.700153 -8.237211 -28.057475 -6.001129 32.581846 0.000000 0.000000 0.000000 6.335891 -61.670748 7.344836 0.000000 -0.000001 0.000000 11.790256 2.908554 -1.603245 7.770480 6.627625 -4.231605 0.000000 0.000000 0.000000 -4.045650 7.405342 -2.504580 0.683729 1.619021 0.107528 0.000000 0.000000 0.000000 -4.045650 7.405342 -2.504580 -1.198226 -8.823971 -1.070340 -1.690131 1.580937 -42.916531 -20.383660 -29.841428 -17.458761 0.000000 0.000000 0.000000 -4.045650 7.405342 -2.504580 -5.857951 28.647198 3.741296 2.569314 -20.280119 52.636726 -22.744240 43.682222 19.772740 0.000000 0.000000 0.000000 
-5.004080 78.386307 3.512970 0.000000 0.000000 0.000000 4.412407 -65.198097 5.578413 -56.700751 9.521457 46.477979 80.079098 -11.703142 5.224217 -20.445575 6.627479 -20.171864 0.000000 0.000000 0.000000 4.412407 -65.198097 5.578413 -31.160798 17.426782 -23.696431 57.819778 5.692959 -8.615936 -26.800126 -6.173278 34.213995 0.000000 0.000000 0.000000 4.412407 -65.198097 5.578413 0.000000 0.000000 0.000000 12.096395 2.951963 -1.433048 8.385011 6.900257 -4.164792 0.000000 0.000000 0.000000 -3.385461 7.640536 -2.331400 0.736101 1.516981 0.154160 0.000000 0.000000 0.000000 -3.385461 7.640536 -2.331400 -1.029294 -6.525273 -0.488141 1.766637 1.705283 -42.439770 -19.332847 -31.269610 -17.659186 0.000000 0.000000 0.000000 -3.385461 7.640536 -2.331400 -6.241812 30.304149 4.683757 1.555782 -15.867687 52.371049 -21.618990 42.736668 14.954310 0.000000 0.000000 0.000000 
